<svg xmlns="http://www.w3.org/2000/svg" class="graphdiagram" viewBox="-2440.282052635151 -2308.4963694266444 3246.1730633395764 1631.5401073555684"><g class="layer relationships"><g class="related-pair"><g class="relationship" transform="translate(-904.8583393096924,-1672.8538579940796) rotate(26.159723073250927)"><path class="relationship" d="M 109.14251143256446 4 L 788.2983693690935 4 L 788.2983693690935 16 L 820.2983693690935 0 L 788.2983693690935 -16 L 788.2983693690935 -4 L 109.14251143256446 -4 Z" fill="rgb(0, 0, 0)" stroke="rgb(51, 51, 51)" stroke-width="0px"/><text class="type" text-anchor="middle" baseline-shift="30%" alignment-baseline="alphabetic" x="448.720440400829" y="0" font-size="50px" font-family="&quot;Gill Sans&quot;, &quot;Gill Sans MT&quot;, Calibri, sans-serif">TO_LEAGUE</text></g></g><g class="related-pair"><g class="relationship" transform="translate(-904.8583393096924,-1672.8538579940796) rotate(109.12105108982094)"><path class="relationship" d="M 109.14251143256446 4 L 624.4172752217097 4 L 624.4172752217097 16 L 656.4172752217097 0 L 624.4172752217097 -16 L 624.4172752217097 -4 L 109.14251143256446 -4 Z" fill="rgb(0, 0, 0)" stroke="rgb(51, 51, 51)" stroke-width="0px"/><text class="type" text-anchor="middle" baseline-shift="30%" alignment-baseline="alphabetic" transform="rotate(180)" x="-366.7798933271371" y="0" font-size="50px" font-family="&quot;Gill Sans&quot;, &quot;Gill Sans MT&quot;, Calibri, sans-serif">SOLD_FOR</text></g></g><g class="related-pair"><g class="relationship" transform="translate(-904.8583393096924,-1672.8538579940796) rotate(79.52588638727865)"><path class="relationship" d="M 109.14251143256446 4 L 606.2182509970792 4 L 606.2182509970792 16 L 638.2182509970792 0 L 606.2182509970792 -16 L 606.2182509970792 -4 L 109.14251143256446 -4 Z" fill="rgb(0, 0, 0)" stroke="rgb(51, 51, 51)" stroke-width="0px"/><text class="type" text-anchor="middle" baseline-shift="30%" alignment-baseline="alphabetic" x="357.6803812148218" y="0" font-size="50px" font-family="&quot;Gill Sans&quot;, &quot;Gill Sans MT&quot;, Calibri, sans-serif">VALUE_AT</text></g></g><g class="related-pair"><g class="relationship" transform="translate(-904.8583393096924,-1672.8538579940796) rotate(132.9784420564826)"><path class="relationship" d="M 109.14251143256446 4 L 839.4745477208376 4 L 839.4745477208376 16 L 871.4745477208376 0 L 839.4745477208376 -16 L 839.4745477208376 -4 L 109.14251143256446 -4 Z" fill="rgb(0, 0, 0)" stroke="rgb(51, 51, 51)" stroke-width="0px"/><text class="type" text-anchor="middle" baseline-shift="30%" alignment-baseline="alphabetic" x="-474.308529576701" y="0" font-size="50px" font-family="&quot;Gill Sans&quot;, &quot;Gill Sans MT&quot;, Calibri, sans-serif" transform="rotate(180)">TO_CLUB</text></g></g><g class="related-pair"><g class="relationship" transform="translate(-904.8583393096924,-1672.8538579940796) rotate(8.919878235741763)"><path class="relationship" d="M 109.14251143256446 4 L 882.1744610177772 4 L 882.1744610177772 16 L 914.1744610177772 0 L 882.1744610177772 -16 L 882.1744610177772 -4 L 109.14251143256446 -4 Z" fill="rgb(0, 0, 0)" stroke="rgb(51, 51, 51)" stroke-width="0px"/><text class="type" text-anchor="middle" baseline-shift="30%" alignment-baseline="alphabetic" x="495.6584862251708" y="0" font-size="50px" font-family="&quot;Gill Sans&quot;, &quot;Gill Sans MT&quot;, Calibri, sans-serif">FROM_LEAGUE</text></g></g><g class="related-pair"><g class="relationship" transform="translate(-904.8583393096924,-1672.8538579940796) rotate(147.5374495103459)"><path class="relationship" d="M 109.14251143256446 4 L 830.7162045194672 4 L 830.7162045194672 16 L 862.7162045194672 0 L 830.7162045194672 -16 L 830.7162045194672 -4 L 109.14251143256446 -4 Z" fill="rgb(0, 0, 0)" stroke="rgb(51, 51, 51)" stroke-width="0px"/><text class="type" text-anchor="middle" baseline-shift="30%" alignment-baseline="alphabetic" x="-469.9293579760158" y="0" font-size="50px" font-family="&quot;Gill Sans&quot;, &quot;Gill Sans MT&quot;, Calibri, sans-serif" transform="rotate(180)">FROM_CLUB</text></g></g><g class="related-pair"><g class="relationship" transform="translate(-904.8583393096924,-1672.8538579940796) rotate(167.48498993489196)"><path class="relationship" d="M 109.14251143256446 4 L 746.9243638139678 4 L 746.9243638139678 16 L 778.9243638139678 0 L 746.9243638139678 -16 L 746.9243638139678 -4 L 109.14251143256446 -4 Z" fill="rgb(0, 0, 0)" stroke="rgb(51, 51, 51)" stroke-width="0px"/><text class="type" text-anchor="middle" baseline-shift="30%" alignment-baseline="alphabetic" transform="rotate(180)" x="-428.03343762326614" y="0" font-size="50px" font-family="&quot;Gill Sans&quot;, &quot;Gill Sans MT&quot;, Calibri, sans-serif">FROM</text></g></g><g class="related-pair"><g class="relationship" transform="translate(-904.8583393096924,-1672.8538579940796) rotate(46.37952162763635)"><path class="relationship" d="M 109.14251143256446 4 L 763.6346912387313 4 L 763.6346912387313 16 L 795.6346912387313 0 L 763.6346912387313 -16 L 763.6346912387313 -4 L 109.14251143256446 -4 Z" fill="rgb(0, 0, 0)" stroke="rgb(51, 51, 51)" stroke-width="0px"/><text class="type" text-anchor="middle" baseline-shift="30%" alignment-baseline="alphabetic" x="436.3886013356479" y="0" font-size="50px" font-family="&quot;Gill Sans&quot;, &quot;Gill Sans MT&quot;, Calibri, sans-serif">PLAYS_AS_A</text></g></g></g><g class="layer nodes"><circle class="node node-id-0" r="94.14251143256446" fill="rgb(255, 255, 255)" stroke="rgb(0, 0, 0)" stroke-width="8px" cx="-904.8583393096924" cy="-1672.8538579940796"/><g class="caption"><text class="caption node" text-anchor="middle" alignment-baseline="central" x="-904.8583393096924" y="-1672.8538579940796" fill="rgb(51, 51, 51)" font-size="50px" font-family="&quot;Gill Sans&quot;, &quot;Gill Sans MT&quot;, Calibri, sans-serif">Player</text></g><circle class="node node-id-1" r="76.17172957634082" fill="rgb(255, 255, 255)" stroke="rgb(0, 0, 0)" stroke-width="8px" cx="-1561.1165771484375" cy="-968.5719680786133"/><g class="caption"><text class="caption node" text-anchor="middle" alignment-baseline="central" x="-1561.1165771484375" y="-968.5719680786133" fill="rgb(51, 51, 51)" font-size="50px" font-family="&quot;Gill Sans&quot;, &quot;Gill Sans MT&quot;, Calibri, sans-serif">Club</text></g><circle class="node node-id-2" r="106.08830095264753" fill="rgb(255, 255, 255)" stroke="rgb(0, 0, 0)" stroke-width="8px" cx="-59.89930725097656" cy="-1257.8200073242188"/><g class="caption"><text class="caption node" text-anchor="middle" alignment-baseline="central" x="-59.89930725097656" y="-1257.8200073242188" fill="rgb(51, 51, 51)" font-size="50px" font-family="&quot;Gill Sans&quot;, &quot;Gill Sans MT&quot;, Calibri, sans-serif">League</text></g><circle class="node node-id-3" r="125.31014164719265" fill="rgb(255, 255, 255)" stroke="rgb(0, 0, 0)" stroke-width="8px" cx="-763.3286743164062" cy="-907.2979736328125"/><g class="caption"><text class="caption node" text-anchor="middle" alignment-baseline="central" x="-763.3286743164062" y="-932.2979736328125" fill="rgb(51, 51, 51)" font-size="50px" font-family="&quot;Gill Sans&quot;, &quot;Gill Sans MT&quot;, Calibri, sans-serif">Market</text><text class="caption node" text-anchor="middle" alignment-baseline="central" x="-763.3286743164062" y="-882.2979736328125" fill="rgb(51, 51, 51)" font-size="50px" font-family="&quot;Gill Sans&quot;, &quot;Gill Sans MT&quot;, Calibri, sans-serif">Value</text></g><circle class="node node-id-4" r="138.84171156173647" fill="rgb(255, 255, 255)" stroke="rgb(0, 0, 0)" stroke-width="8px" cx="-1170.2708740234375" cy="-907.2979736328125"/><g class="caption"><text class="caption node" text-anchor="middle" alignment-baseline="central" x="-1170.2708740234375" y="-932.2979736328125" fill="rgb(51, 51, 51)" font-size="50px" font-family="&quot;Gill Sans&quot;, &quot;Gill Sans MT&quot;, Calibri, sans-serif">Transfer</text><text class="caption node" text-anchor="middle" alignment-baseline="central" x="-1170.2708740234375" y="-882.2979736328125" fill="rgb(51, 51, 51)" font-size="50px" font-family="&quot;Gill Sans&quot;, &quot;Gill Sans MT&quot;, Calibri, sans-serif">Value</text></g><circle class="node node-id-5" r="106.08830095264753" fill="rgb(255, 255, 255)" stroke="rgb(0, 0, 0)" stroke-width="8px" cx="117.88409042358398" cy="-1512.3331155776978"/><g class="caption"><text class="caption node" text-anchor="middle" alignment-baseline="central" x="117.88409042358398" y="-1512.3331155776978" fill="rgb(51, 51, 51)" font-size="50px" font-family="&quot;Gill Sans&quot;, &quot;Gill Sans MT&quot;, Calibri, sans-serif">League</text></g><circle class="node node-id-6" r="76.17172957634082" fill="rgb(255, 255, 255)" stroke="rgb(0, 0, 0)" stroke-width="8px" cx="-1709.694085597992" cy="-1160.8561897277832"/><g class="caption"><text class="caption node" text-anchor="middle" alignment-baseline="central" x="-1709.694085597992" y="-1160.8561897277832" fill="rgb(51, 51, 51)" font-size="50px" font-family="&quot;Gill Sans&quot;, &quot;Gill Sans MT&quot;, Calibri, sans-serif">Club</text></g><circle class="node node-id-7" r="110.03658623054116" fill="rgb(255, 255, 255)" stroke="rgb(0, 0, 0)" stroke-width="8px" cx="-1787.340518951416" cy="-1476.969703912735"/><g class="caption"><text class="caption node" text-anchor="middle" alignment-baseline="central" x="-1787.340518951416" y="-1476.969703912735" fill="rgb(51, 51, 51)" font-size="50px" font-family="&quot;Gill Sans&quot;, &quot;Gill Sans MT&quot;, Calibri, sans-serif">Country</text></g><circle class="node node-id-8" r="76.17172957634082" fill="rgb(255, 255, 255)" stroke="rgb(0, 0, 0)" stroke-width="8px" cx="-293.0698070526123" cy="-1030.8722229003906"/><g class="caption"><text class="caption node" text-anchor="middle" alignment-baseline="central" x="-293.0698070526123" y="-1030.8722229003906" fill="rgb(51, 51, 51)" font-size="50px" font-family="&quot;Gill Sans&quot;, &quot;Gill Sans MT&quot;, Calibri, sans-serif">Role</text></g></g><g class="layer properties"><g class="speech-bubble node-speech-bubble" transform="translate(-904.8583393096924,-1766.9963694266442) "><path class="speech-bubble-outline" transform="scale(1,-1) " d="M 0 0 L -10 20 L -277.91748046875 20 A 10 10 0 0 0 -287.91748046875 30 L -287.91748046875 530 A 10 10 0 0 0 -277.91748046875 540 L 277.91748046875 540 A 10 10 0 0 0 287.91748046875 530 L 287.91748046875 30 A 10 10 0 0 0 277.91748046875 20 L 10 20 Z" fill="rgb(255, 255, 255)" stroke="rgb(0, 0, 0)" stroke-width="3px"/><text class="speech-bubble-content property-key" x="66.71142578125" y="-505" alignment-baseline="central" text-anchor="end" font-size="50px" font-family="&quot;Gill Sans&quot;, &quot;Gill Sans MT&quot;, Calibri, sans-serif" xml:space="preserve">name: </text><text class="speech-bubble-content property-key" x="66.71142578125" y="-455" alignment-baseline="central" text-anchor="end" font-size="50px" font-family="&quot;Gill Sans&quot;, &quot;Gill Sans MT&quot;, Calibri, sans-serif" xml:space="preserve">age: </text><text class="speech-bubble-content property-key" x="66.71142578125" y="-405" alignment-baseline="central" text-anchor="end" font-size="50px" font-family="&quot;Gill Sans&quot;, &quot;Gill Sans MT&quot;, Calibri, sans-serif" xml:space="preserve">role: </text><text class="speech-bubble-content property-value" x="66.71142578125" y="-505" alignment-baseline="central" font-size="50px" font-family="&quot;Gill Sans&quot;, &quot;Gill Sans MT&quot;, Calibri, sans-serif">Sambeth</text><text class="speech-bubble-content property-value" x="66.71142578125" y="-455" alignment-baseline="central" font-size="50px" font-family="&quot;Gill Sans&quot;, &quot;Gill Sans MT&quot;, Calibri, sans-serif">21</text><text class="speech-bubble-content property-value" x="66.71142578125" y="-405" alignment-baseline="central" font-size="50px" font-family="&quot;Gill Sans&quot;, &quot;Gill Sans MT&quot;, Calibri, sans-serif">Left Wing</text><text class="speech-bubble-content property-key" x="66.71142578125" y="-355" alignment-baseline="central" text-anchor="end" font-size="50px" font-family="&quot;Gill Sans&quot;, &quot;Gill Sans MT&quot;, Calibri, sans-serif" xml:space="preserve">nationality: </text><text class="speech-bubble-content property-value" x="66.71142578125" y="-355" alignment-baseline="central" font-size="50px" font-family="&quot;Gill Sans&quot;, &quot;Gill Sans MT&quot;, Calibri, sans-serif">Brazil</text><text class="speech-bubble-content property-key" x="66.71142578125" y="-305" alignment-baseline="central" text-anchor="end" font-size="50px" font-family="&quot;Gill Sans&quot;, &quot;Gill Sans MT&quot;, Calibri, sans-serif" xml:space="preserve">from_club: </text><text class="speech-bubble-content property-key" x="66.71142578125" y="-255" alignment-baseline="central" text-anchor="end" font-size="50px" font-family="&quot;Gill Sans&quot;, &quot;Gill Sans MT&quot;, Calibri, sans-serif" xml:space="preserve">to_club: </text><text class="speech-bubble-content property-key" x="66.71142578125" y="-205" alignment-baseline="central" text-anchor="end" font-size="50px" font-family="&quot;Gill Sans&quot;, &quot;Gill Sans MT&quot;, Calibri, sans-serif" xml:space="preserve">from_league: </text><text class="speech-bubble-content property-key" x="66.71142578125" y="-155" alignment-baseline="central" text-anchor="end" font-size="50px" font-family="&quot;Gill Sans&quot;, &quot;Gill Sans MT&quot;, Calibri, sans-serif" xml:space="preserve">to_league: </text><text class="speech-bubble-content property-value" x="66.71142578125" y="-305" alignment-baseline="central" font-size="50px" font-family="&quot;Gill Sans&quot;, &quot;Gill Sans MT&quot;, Calibri, sans-serif">Crap</text><text class="speech-bubble-content property-value" x="66.71142578125" y="-255" alignment-baseline="central" font-size="50px" font-family="&quot;Gill Sans&quot;, &quot;Gill Sans MT&quot;, Calibri, sans-serif">Crappier</text><text class="speech-bubble-content property-value" x="66.71142578125" y="-205" alignment-baseline="central" font-size="50px" font-family="&quot;Gill Sans&quot;, &quot;Gill Sans MT&quot;, Calibri, sans-serif">Okay</text><text class="speech-bubble-content property-value" x="66.71142578125" y="-155" alignment-baseline="central" font-size="50px" font-family="&quot;Gill Sans&quot;, &quot;Gill Sans MT&quot;, Calibri, sans-serif">Okayier</text><text class="speech-bubble-content property-key" x="66.71142578125" y="-105" alignment-baseline="central" text-anchor="end" font-size="50px" font-family="&quot;Gill Sans&quot;, &quot;Gill Sans MT&quot;, Calibri, sans-serif" xml:space="preserve">market_value: </text><text class="speech-bubble-content property-key" x="66.71142578125" y="-55" alignment-baseline="central" text-anchor="end" font-size="50px" font-family="&quot;Gill Sans&quot;, &quot;Gill Sans MT&quot;, Calibri, sans-serif" xml:space="preserve">transfer_value: </text><text class="speech-bubble-content property-value" x="66.71142578125" y="-105" alignment-baseline="central" font-size="50px" font-family="&quot;Gill Sans&quot;, &quot;Gill Sans MT&quot;, Calibri, sans-serif">1 cedis</text><text class="speech-bubble-content property-value" x="66.71142578125" y="-55" alignment-baseline="central" font-size="50px" font-family="&quot;Gill Sans&quot;, &quot;Gill Sans MT&quot;, Calibri, sans-serif">2 cedis</text></g><g class="speech-bubble node-speech-bubble" transform="translate(-1614.978123666576,-914.7104215604747) "><path class="speech-bubble-outline" transform="scale(-1,1) " d="M 0 0 L 30 20 L 288.447265625 20 A 10 10 0 0 1 298.447265625 30 L 298.447265625 80 A 10 10 0 0 1 288.447265625 90 L 30 90 A 10 10 0 0 1 20 80 L 20 30 Z" fill="rgb(255, 255, 255)" stroke="rgb(0, 0, 0)" stroke-width="3px"/><text class="speech-bubble-content property-key" x="-135.5908203125" y="55" alignment-baseline="central" text-anchor="end" font-size="50px" font-family="&quot;Gill Sans&quot;, &quot;Gill Sans MT&quot;, Calibri, sans-serif" xml:space="preserve">name: </text><text class="speech-bubble-content property-value" x="-135.5908203125" y="55" alignment-baseline="central" font-size="50px" font-family="&quot;Gill Sans&quot;, &quot;Gill Sans MT&quot;, Calibri, sans-serif">PSG</text></g><g class="speech-bubble node-speech-bubble" transform="translate(15.116449757199774,-1182.8042503160425) "><path class="speech-bubble-outline" transform="scale(1,1) " d="M 0 0 L 30 20 L 346.89453125 20 A 10 10 0 0 1 356.89453125 30 L 356.89453125 80 A 10 10 0 0 1 346.89453125 90 L 30 90 A 10 10 0 0 1 20 80 L 20 30 Z" fill="rgb(255, 255, 255)" stroke="rgb(0, 0, 0)" stroke-width="3px"/><text class="speech-bubble-content property-key" x="182.8564453125" y="55" alignment-baseline="central" text-anchor="end" font-size="50px" font-family="&quot;Gill Sans&quot;, &quot;Gill Sans MT&quot;, Calibri, sans-serif" xml:space="preserve">name: </text><text class="speech-bubble-content property-value" x="182.8564453125" y="55" alignment-baseline="central" font-size="50px" font-family="&quot;Gill Sans&quot;, &quot;Gill Sans MT&quot;, Calibri, sans-serif">Ligue 1</text></g><g class="speech-bubble node-speech-bubble" transform="translate(-763.3286743164062,-781.9878319856199) "><path class="speech-bubble-outline" transform="scale(1,1) " d="M 0 0 L -10 20 L -152.86865234375 20 A 10 10 0 0 0 -162.86865234375 30 L -162.86865234375 80 A 10 10 0 0 0 -152.86865234375 90 L 152.86865234375 90 A 10 10 0 0 0 162.86865234375 80 L 162.86865234375 30 A 10 10 0 0 0 152.86865234375 20 L 10 20 Z" fill="rgb(255, 255, 255)" stroke="rgb(0, 0, 0)" stroke-width="3px"/><text class="speech-bubble-content property-key" x="-5.55419921875" y="55" alignment-baseline="central" text-anchor="end" font-size="50px" font-family="&quot;Gill Sans&quot;, &quot;Gill Sans MT&quot;, Calibri, sans-serif" xml:space="preserve">value: </text><text class="speech-bubble-content property-value" x="-5.55419921875" y="55" alignment-baseline="central" font-size="50px" font-family="&quot;Gill Sans&quot;, &quot;Gill Sans MT&quot;, Calibri, sans-serif">1 cedis</text></g><g class="speech-bubble node-speech-bubble" transform="translate(-1170.2708740234375,-768.456262071076) "><path class="speech-bubble-outline" transform="scale(1,1) " d="M 0 0 L -10 20 L -152.86865234375 20 A 10 10 0 0 0 -162.86865234375 30 L -162.86865234375 80 A 10 10 0 0 0 -152.86865234375 90 L 152.86865234375 90 A 10 10 0 0 0 162.86865234375 80 L 162.86865234375 30 A 10 10 0 0 0 152.86865234375 20 L 10 20 Z" fill="rgb(255, 255, 255)" stroke="rgb(0, 0, 0)" stroke-width="3px"/><text class="speech-bubble-content property-key" x="-5.55419921875" y="55" alignment-baseline="central" text-anchor="end" font-size="50px" font-family="&quot;Gill Sans&quot;, &quot;Gill Sans MT&quot;, Calibri, sans-serif" xml:space="preserve">value: </text><text class="speech-bubble-content property-value" x="-5.55419921875" y="55" alignment-baseline="central" font-size="50px" font-family="&quot;Gill Sans&quot;, &quot;Gill Sans MT&quot;, Calibri, sans-serif">2 cedis</text></g><g class="speech-bubble node-speech-bubble" transform="translate(223.9723913762315,-1512.3331155776978) "><path class="speech-bubble-outline" transform="scale(1,1) " d="M 0 0 L 20 -10 L 20 -25 A 10 10 0 0 1 30 -35 L 346.89453125 -35 A 10 10 0 0 1 356.89453125 -25 L 356.89453125 25 A 10 10 0 0 1 346.89453125 35 L 30 35 A 10 10 0 0 1 20 25 L 20 10 Z" fill="rgb(255, 255, 255)" stroke="rgb(0, 0, 0)" stroke-width="3px"/><text class="speech-bubble-content property-key" x="182.8564453125" y="0" alignment-baseline="central" text-anchor="end" font-size="50px" font-family="&quot;Gill Sans&quot;, &quot;Gill Sans MT&quot;, Calibri, sans-serif" xml:space="preserve">name: </text><text class="speech-bubble-content property-value" x="182.8564453125" y="0" alignment-baseline="central" font-size="50px" font-family="&quot;Gill Sans&quot;, &quot;Gill Sans MT&quot;, Calibri, sans-serif">La Liga</text></g><g class="speech-bubble node-speech-bubble" transform="translate(-1763.5556321161305,-1106.9946432096447) "><path class="speech-bubble-outline" transform="scale(-1,1) " d="M 0 0 L 30 20 L 408.0029296875 20 A 10 10 0 0 1 418.0029296875 30 L 418.0029296875 80 A 10 10 0 0 1 408.0029296875 90 L 30 90 A 10 10 0 0 1 20 80 L 20 30 Z" fill="rgb(255, 255, 255)" stroke="rgb(0, 0, 0)" stroke-width="3px"/><text class="speech-bubble-content property-key" x="-255.146484375" y="55" alignment-baseline="central" text-anchor="end" font-size="50px" font-family="&quot;Gill Sans&quot;, &quot;Gill Sans MT&quot;, Calibri, sans-serif" xml:space="preserve">name: </text><text class="speech-bubble-content property-value" x="-255.146484375" y="55" alignment-baseline="central" font-size="50px" font-family="&quot;Gill Sans&quot;, &quot;Gill Sans MT&quot;, Calibri, sans-serif">Barcelona</text></g><g class="speech-bubble node-speech-bubble" transform="translate(-1897.3771051819572,-1476.969703912735) "><path class="speech-bubble-outline" transform="scale(-1,1) " d="M 0 0 L 20 -10 L 20 -25 A 10 10 0 0 1 30 -35 L 307.880859375 -35 A 10 10 0 0 1 317.880859375 -25 L 317.880859375 25 A 10 10 0 0 1 307.880859375 35 L 30 35 A 10 10 0 0 1 20 25 L 20 10 Z" fill="rgb(255, 255, 255)" stroke="rgb(0, 0, 0)" stroke-width="3px"/><text class="speech-bubble-content property-key" x="-155.0244140625" y="0" alignment-baseline="central" text-anchor="end" font-size="50px" font-family="&quot;Gill Sans&quot;, &quot;Gill Sans MT&quot;, Calibri, sans-serif" xml:space="preserve">name: </text><text class="speech-bubble-content property-value" x="-155.0244140625" y="0" alignment-baseline="central" font-size="50px" font-family="&quot;Gill Sans&quot;, &quot;Gill Sans MT&quot;, Calibri, sans-serif">Brazil</text></g><g class="speech-bubble node-speech-bubble" transform="translate(-239.2082605344738,-977.0106763822521) "><path class="speech-bubble-outline" transform="scale(1,1) " d="M 0 0 L 30 20 L 394.0625 20 A 10 10 0 0 1 404.0625 30 L 404.0625 80 A 10 10 0 0 1 394.0625 90 L 30 90 A 10 10 0 0 1 20 80 L 20 30 Z" fill="rgb(255, 255, 255)" stroke="rgb(0, 0, 0)" stroke-width="3px"/><text class="speech-bubble-content property-key" x="182.8564453125" y="55" alignment-baseline="central" text-anchor="end" font-size="50px" font-family="&quot;Gill Sans&quot;, &quot;Gill Sans MT&quot;, Calibri, sans-serif" xml:space="preserve">name: </text><text class="speech-bubble-content property-value" x="182.8564453125" y="55" alignment-baseline="central" font-size="50px" font-family="&quot;Gill Sans&quot;, &quot;Gill Sans MT&quot;, Calibri, sans-serif">Left Wing</text></g></g><g class="layer overlay"><circle class="node overlay" r="98.14251143256446" stroke="none" fill="rgba(255, 255, 255, 0)" cx="-904.8583393096924" cy="-1672.8538579940796"/><circle class="node ring" r="103.14251143256446" fill="none" stroke="rgba(255, 255, 255, 0)" stroke-width="10px" cx="-904.8583393096924" cy="-1672.8538579940796"/><circle class="node overlay" r="80.17172957634082" stroke="none" fill="rgba(255, 255, 255, 0)" cx="-1561.1165771484375" cy="-968.5719680786133"/><circle class="node ring" r="85.17172957634082" fill="none" stroke="rgba(255, 255, 255, 0)" stroke-width="10px" cx="-1561.1165771484375" cy="-968.5719680786133"/><circle class="node overlay" r="110.08830095264753" stroke="none" fill="rgba(255, 255, 255, 0)" cx="-59.89930725097656" cy="-1257.8200073242188"/><circle class="node ring" r="115.08830095264753" fill="none" stroke="rgba(255, 255, 255, 0)" stroke-width="10px" cx="-59.89930725097656" cy="-1257.8200073242188"/><circle class="node overlay" r="129.31014164719267" stroke="none" fill="rgba(255, 255, 255, 0)" cx="-763.3286743164062" cy="-907.2979736328125"/><circle class="node ring" r="134.31014164719267" fill="none" stroke="rgba(255, 255, 255, 0)" stroke-width="10px" cx="-763.3286743164062" cy="-907.2979736328125"/><circle class="node overlay" r="142.84171156173647" stroke="none" fill="rgba(255, 255, 255, 0)" cx="-1170.2708740234375" cy="-907.2979736328125"/><circle class="node ring" r="147.84171156173647" fill="none" stroke="rgba(255, 255, 255, 0)" stroke-width="10px" cx="-1170.2708740234375" cy="-907.2979736328125"/><path class="relationship overlay" fill="rgba(255, 255, 255, 0)" stroke="rgba(255, 255, 255, 0)" stroke-width="10px" transform="translate(-904.8583393096924,-1672.8538579940796) rotate(26.159723073250927)" d="M 109.14251143256446 4 L 788.2983693690935 4 L 788.2983693690935 16 L 820.2983693690935 0 L 788.2983693690935 -16 L 788.2983693690935 -4 L 109.14251143256446 -4 Z"/><path class="relationship overlay" fill="rgba(255, 255, 255, 0)" stroke="rgba(255, 255, 255, 0)" stroke-width="10px" transform="translate(-904.8583393096924,-1672.8538579940796) rotate(109.12105108982094)" d="M 109.14251143256446 4 L 624.4172752217097 4 L 624.4172752217097 16 L 656.4172752217097 0 L 624.4172752217097 -16 L 624.4172752217097 -4 L 109.14251143256446 -4 Z"/><path class="relationship overlay" fill="rgba(255, 255, 255, 0)" stroke="rgba(255, 255, 255, 0)" stroke-width="10px" transform="translate(-904.8583393096924,-1672.8538579940796) rotate(79.52588638727865)" d="M 109.14251143256446 4 L 606.2182509970792 4 L 606.2182509970792 16 L 638.2182509970792 0 L 606.2182509970792 -16 L 606.2182509970792 -4 L 109.14251143256446 -4 Z"/><path class="relationship overlay" fill="rgba(255, 255, 255, 0)" stroke="rgba(255, 255, 255, 0)" stroke-width="10px" transform="translate(-904.8583393096924,-1672.8538579940796) rotate(132.9784420564826)" d="M 109.14251143256446 4 L 839.4745477208376 4 L 839.4745477208376 16 L 871.4745477208376 0 L 839.4745477208376 -16 L 839.4745477208376 -4 L 109.14251143256446 -4 Z"/><circle class="node overlay" r="110.08830095264753" stroke="none" fill="rgba(255, 255, 255, 0)" cx="117.88409042358398" cy="-1512.3331155776978"/><circle class="node ring" r="115.08830095264753" fill="none" stroke="rgba(255, 255, 255, 0)" stroke-width="10px" cx="117.88409042358398" cy="-1512.3331155776978"/><path class="relationship overlay" fill="rgba(255, 255, 255, 0)" stroke="rgba(255, 255, 255, 0)" stroke-width="10px" transform="translate(-904.8583393096924,-1672.8538579940796) rotate(8.919878235741763)" d="M 109.14251143256446 4 L 882.1744610177772 4 L 882.1744610177772 16 L 914.1744610177772 0 L 882.1744610177772 -16 L 882.1744610177772 -4 L 109.14251143256446 -4 Z"/><circle class="node overlay" r="80.17172957634082" stroke="none" fill="rgba(255, 255, 255, 0)" cx="-1709.694085597992" cy="-1160.8561897277832"/><circle class="node ring" r="85.17172957634082" fill="none" stroke="rgba(255, 255, 255, 0)" stroke-width="10px" cx="-1709.694085597992" cy="-1160.8561897277832"/><path class="relationship overlay" fill="rgba(255, 255, 255, 0)" stroke="rgba(255, 255, 255, 0)" stroke-width="10px" transform="translate(-904.8583393096924,-1672.8538579940796) rotate(147.5374495103459)" d="M 109.14251143256446 4 L 830.7162045194672 4 L 830.7162045194672 16 L 862.7162045194672 0 L 830.7162045194672 -16 L 830.7162045194672 -4 L 109.14251143256446 -4 Z"/><circle class="node overlay" r="114.03658623054116" stroke="none" fill="rgba(255, 255, 255, 0)" cx="-1787.340518951416" cy="-1476.969703912735"/><circle class="node ring" r="119.03658623054116" fill="none" stroke="rgba(255, 255, 255, 0)" stroke-width="10px" cx="-1787.340518951416" cy="-1476.969703912735"/><path class="relationship overlay" fill="rgba(255, 255, 255, 0)" stroke="rgba(255, 255, 255, 0)" stroke-width="10px" transform="translate(-904.8583393096924,-1672.8538579940796) rotate(167.48498993489196)" d="M 109.14251143256446 4 L 746.9243638139678 4 L 746.9243638139678 16 L 778.9243638139678 0 L 746.9243638139678 -16 L 746.9243638139678 -4 L 109.14251143256446 -4 Z"/><circle class="node overlay" r="80.17172957634082" stroke="none" fill="rgba(255, 255, 255, 0)" cx="-293.0698070526123" cy="-1030.8722229003906"/><circle class="node ring" r="85.17172957634082" fill="none" stroke="rgba(255, 255, 255, 0)" stroke-width="10px" cx="-293.0698070526123" cy="-1030.8722229003906"/><path class="relationship overlay" fill="rgba(255, 255, 255, 0)" stroke="rgba(255, 255, 255, 0)" stroke-width="10px" transform="translate(-904.8583393096924,-1672.8538579940796) rotate(46.37952162763635)" d="M 109.14251143256446 4 L 763.6346912387313 4 L 763.6346912387313 16 L 795.6346912387313 0 L 763.6346912387313 -16 L 763.6346912387313 -4 L 109.14251143256446 -4 Z"/></g></svg>